<?xml version="1.0" encoding="UTF-8" standalone="no"?>
<!-- Created with Inkscape (http://www.inkscape.org/) -->

<svg
   xmlns:dc="http://purl.org/dc/elements/1.1/"
   xmlns:cc="http://creativecommons.org/ns#"
   xmlns:rdf="http://www.w3.org/1999/02/22-rdf-syntax-ns#"
   xmlns:svg="http://www.w3.org/2000/svg"
   xmlns="http://www.w3.org/2000/svg"
   xmlns:sodipodi="http://sodipodi.sourceforge.net/DTD/sodipodi-0.dtd"
   xmlns:inkscape="http://www.inkscape.org/namespaces/inkscape"
   width="1284.4375"
   height="637.78125"
   id="svg2"
   version="1.1"
   inkscape:version="0.48.3.1 r9886"
   sodipodi:docname="node.svg">
  <defs
     id="defs4" />
  <sodipodi:namedview
     id="base"
     pagecolor="#ffffff"
     bordercolor="#666666"
     borderopacity="1.0"
     inkscape:pageopacity="0.0"
     inkscape:pageshadow="2"
     inkscape:zoom="0.28540039"
     inkscape:cx="633.21804"
     inkscape:cy="460.54787"
     inkscape:document-units="px"
     inkscape:current-layer="layer1"
     showgrid="true"
     inkscape:window-width="1366"
     inkscape:window-height="694"
     inkscape:window-x="0"
     inkscape:window-y="24"
     inkscape:window-maximized="1"
     inkscape:snap-center="true"
     fit-margin-top="0"
     fit-margin-left="0"
     fit-margin-right="0"
     fit-margin-bottom="0">
    <inkscape:grid
       type="xygrid"
       id="grid2985"
       units="cm"
       empspacing="5"
       visible="true"
       enabled="true"
       snapvisiblegridlinesonly="true"
       spacingx="0.5cm"
       spacingy="0.5cm"
       originx="0cm"
       originy="0cm" />
    <inkscape:grid
       type="xygrid"
       id="grid5009"
       units="mm"
       empspacing="5"
       visible="true"
       enabled="false"
       snapvisiblegridlinesonly="true"
       originx="0px"
       originy="0px" />
  </sodipodi:namedview>
  <metadata
     id="metadata7">
    <rdf:RDF>
      <cc:Work
         rdf:about="">
        <dc:format>image/svg+xml</dc:format>
        <dc:type
           rdf:resource="http://purl.org/dc/dcmitype/StillImage" />
        <dc:title />
      </cc:Work>
    </rdf:RDF>
  </metadata>
  <g
     inkscape:label="Layer 1"
     inkscape:groupmode="layer"
     id="layer1"
     transform="translate(336.625,-450)">
    <g
       id="layer4"
       inkscape:label="PATRAT"
       style="display:inline"
       transform="translate(-100.14192,485.41714)" />
    <path
       style="fill:#d24e4e;fill-opacity:1;stroke:#000000;stroke-width:17.71653557000000134;stroke-miterlimit:4;stroke-opacity:1;stroke-dasharray:none"
       d="m -62.007925,547.43394 0,-44.29133 -88.582675,0 0,-44.29134 265.74803,0 0,44.29134 -88.58269,0 0,44.29133 177.16537,0 0,177.16536 44.29134,0 0,-88.58267 44.29133,0 0,265.74803 -44.29133,0 0,-88.58268 -44.29134,0 0,177.16533 -177.16537,0 0,44.29139 88.58269,0 0,44.2913 -265.74803,0 0,-44.2913 88.582675,0 0,-44.29139 -177.165355,0 0,-177.16533 -44.29134,0 0,88.58268 -44.29134,0 0,-265.74803 44.29134,0 0,88.58267 44.29134,0 0,-177.16535 z"
       id="path5814"
       inkscape:connector-curvature="0"
       sodipodi:nodetypes="ccccccccccccccccccccccccccccccccccccc" />
    <g
       id="layer4-9"
       inkscape:label="PATRAT"
       style="fill:#ff0000;stroke:none;display:inline"
       transform="matrix(2.0020805,0,0,2.0020805,-925.90097,160.67509)" />
    <path
       style="fill:#559f33;fill-opacity:1;stroke:#000000;stroke-width:17.71653557000000134;stroke-miterlimit:4;stroke-opacity:1;stroke-dasharray:none"
       d="m 584.63483,547.43393 0,-44.29133 -88.58267,0 0,-44.29134 265.74803,0 0,44.29134 -88.58269,0 0,44.29133 177.16537,0 0,177.16536 44.29134,0 0,-88.58267 44.29133,0 0,265.74803 -44.29133,0 0,-88.5827 -44.29134,0 0,177.1654 -177.16537,0 0,44.29135 88.58269,0 0,44.2913 -265.74803,0 0,-44.2913 88.58267,0 0,-44.29135 -177.16535,0 0,-177.1654 -44.29134,0 0,88.5827 -44.29134,0 0,-265.74803 44.29134,0 0,88.58267 44.29134,0 0,-177.16535 z"
       id="path5814-7"
       inkscape:connector-curvature="0"
       sodipodi:nodetypes="ccccccccccccccccccccccccccccccccccccc" />
  </g>
</svg>
